<svg xmlns="http://www.w3.org/2000/svg" xmlns:xlink="http://www.w3.org/1999/xlink" width="326" height="326" viewBox="0 0 326 326">
  <defs>
    <rect id="avatar-a" width="326" height="326" x="0" y="0"/>
  </defs>
  <g fill="none" fill-rule="evenodd">
    <mask id="avatar-b" fill="#fff">
      <use xlink:href="#avatar-a"/>
    </mask>
    <path fill="#FFD3D6" d="M117.82025,247.514596 C127.391912,239.1574 129.292479,222.761697 128.839062,209.948876 C122.008551,211.143743 115.583277,211.647975 108.356995,210.466852 C110.905423,208.897462 112.948812,207.637311 113.541609,204.707267 C104.59716,203.978837 96.5268503,200.976637 89.0897762,196.892959 C96.0415993,191.763879 97.6548008,182.227278 96.4304884,172.414939 C94.5170163,157.082676 91.2450134,145.623637 92.2817643,130.350645 C93.0595425,119.47916 95.3077002,108.053622 97.5326277,101.075119 C102.732729,84.7644566 109.234576,71.8081831 122.615976,61.1076396 C135.168834,51.0702428 150.293352,46.5304361 165.884191,53.0296183 C168.395624,54.0767374 171.165168,56.3187233 172.719864,58.7780358 C175.313032,57.8717925 179.304307,56.9749981 181.836389,57.1880297 C196.830989,58.4533344 207.54953,70.3427318 215.04597,83.3694431 C228.919503,107.478952 235.383494,137.826508 226.591331,164.210645 C222.56478,176.297612 221.054823,187.348627 230.08359,197.394614 C222.401309,200.614999 214.041914,203.703098 205.745326,204.457299 C207.575341,207.302302 208.643926,208.692161 211.707719,210.132702 C204.74299,211.745901 196.943698,212.009613 190.02629,210.207434 C190.674152,224.832742 191.807265,237.914429 201.045102,247.353104 C206.364795,252.787987 216.67724,257.007387 223.861364,259.519099 C234.761444,263.329616 240.772018,265.323351 251.672098,269.133009 C259.597864,271.904138 267.617412,274.720794 274.607952,279.367117 C290.061132,289.637302 298.938472,308.977652 296.640413,327.369667 C205.822759,332.372474 114.718601,332.204111 23.9190157,326.868012 C21.4308137,326.721124 24.7260466,307.80426 25.2500145,306.019261 C27.3037276,299.027873 30.876001,292.479728 35.5882702,286.921149 C44.4922823,276.420752 55.0981144,272.953834 67.6518336,268.676022 C77.6381963,265.27267 86.8115055,262.742061 96.624933,258.872273 C103.824544,256.033283 111.992936,252.602443 117.82025,247.514596 Z" mask="url(#avatar-b)"/>
  </g>
</svg>
