<svg xmlns="http://www.w3.org/2000/svg" width="338" height="420" viewBox="0 0 338 420">
  <g fill="none" fill-rule="evenodd" transform="translate(.763 .978)">
    <path fill="#F2F2F2" d="M234.453,0 L25.91,0 C11.601,0 0,11.601 0,25.911 L0,392.133 C0,406.443 11.601,418.043 25.91,418.043 L310.563,418.043 C324.874,418.043 336.474,406.443 336.474,392.133 L336.474,102.022 L234.453,0"/>
    <path fill="#78C46F" d="M336.474,102.022 L234.453,0 L25.91,0 C11.601,0 0,11.601 0,25.911 L0,142.042 L336.474,142.042 L336.474,102.022"/>
    <path fill="#66A75E" d="M257.885,106.976 C243.576,106.976 231.975,95.376 231.975,81.066 L234.453,0 L336.474,102.022 L234.453,0 L234.453,76.111 C234.453,90.421 246.053,102.022 260.363,102.022 L336.474,102.022 L257.885,106.976"/>
    <path fill="#78C46F" d="M234.453,76.111 C234.453,90.421 246.053,102.022 260.363,102.022 L336.474,102.022 L234.453,0 L234.453,76.111"/>
    <path fill="#91CF8A" d="M336.474,102.022 L260.363,102.022 C246.053,102.022 234.453,90.421 234.453,76.111 L234.453,0 L336.474,102.022"/>
    <path fill="#CCC" d="M264.517 217.512L71.957 217.512C69.512 217.512 67.53 215.531 67.53 213.085L67.53 200.003C67.53 197.558 69.512 195.576 71.957 195.576L264.517 195.576C266.962 195.576 268.944 197.558 268.944 200.003L268.944 213.085C268.944 215.531 266.962 217.512 264.517 217.512M264.517 263.426L71.957 263.426C69.512 263.426 67.53 261.444 67.53 259L67.53 245.917C67.53 243.471 69.512 241.49 71.957 241.49L264.517 241.49C266.962 241.49 268.944 243.471 268.944 245.917L268.944 259C268.944 261.444 266.962 263.426 264.517 263.426M264.517 309.339L71.957 309.339C69.512 309.339 67.53 307.357 67.53 304.913L67.53 291.83C67.53 289.385 69.512 287.403 71.957 287.403L264.517 287.403C266.962 287.403 268.944 289.385 268.944 291.83L268.944 304.913C268.944 307.357 266.962 309.339 264.517 309.339M264.517 355.252L71.957 355.252C69.512 355.252 67.53 353.271 67.53 350.826L67.53 337.743C67.53 335.298 69.512 333.316 71.957 333.316L264.517 333.316C266.962 333.316 268.944 335.298 268.944 337.743L268.944 350.826C268.944 353.271 266.962 355.252 264.517 355.252"/>
    <polygon fill="#FFF" points="29.865 102.789 39.103 102.789 39.103 93.552 29.865 93.552"/>
    <path fill="#FFF" d="M79.01 78.2L69.904 79.844C69.597 78.025 68.902 76.655 67.817 75.734 66.732 74.814 65.324 74.354 63.592 74.354 61.292 74.354 59.456 75.148 58.087 76.737 56.717 78.326 56.032 80.983 56.032 84.709 56.032 88.851 56.728 91.776 58.119 93.486 59.511 95.195 61.379 96.05 63.724 96.05 65.477 96.05 66.913 95.551 68.03 94.554 69.148 93.557 69.937 91.842 70.397 89.41L79.47 90.955C78.528 95.119 76.72 98.263 74.046 100.389 71.372 102.515 67.789 103.578 63.297 103.578 58.191 103.578 54.12 101.967 51.085 98.746 48.05 95.524 46.532 91.064 46.532 85.366 46.532 79.603 48.055 75.116 51.101 71.905 54.147 68.694 58.267 67.089 63.461 67.089 67.713 67.089 71.093 68.004 73.602 69.834 76.112 71.664 77.914 74.453 79.01 78.2M82.758 92.828L92.028 91.415C92.422 93.212 93.222 94.576 94.427 95.507 95.633 96.439 97.32 96.905 99.489 96.905 101.878 96.905 103.675 96.466 104.881 95.59 105.692 94.976 106.097 94.154 106.097 93.124 106.097 92.423 105.878 91.842 105.44 91.382 104.979 90.944 103.949 90.538 102.349 90.166 94.898 88.522 90.175 87.021 88.181 85.662 85.42 83.777 84.039 81.159 84.039 77.806 84.039 74.781 85.234 72.239 87.622 70.179 90.011 68.119 93.715 67.089 98.734 67.089 103.511 67.089 107.061 67.867 109.384 69.423 111.707 70.979 113.307 73.28 114.184 76.326L105.472 77.937C105.1 76.578 104.393 75.538 103.352 74.814 102.311 74.091 100.826 73.73 98.898 73.73 96.465 73.73 94.723 74.069 93.671 74.749 92.97 75.23 92.619 75.855 92.619 76.622 92.619 77.28 92.926 77.838 93.54 78.299 94.372 78.912 97.249 79.778 102.169 80.896 107.089 82.013 110.524 83.383 112.474 85.005 114.403 86.648 115.367 88.939 115.367 91.875 115.367 95.075 114.03 97.825 111.357 100.126 108.683 102.427 104.727 103.578 99.489 103.578 94.734 103.578 90.97 102.613 88.198 100.685 85.425 98.756 83.612 96.138 82.758 92.828M133.052 102.789L118.983 67.878 128.68 67.878 135.255 85.695 137.161 91.645C137.666 90.133 137.983 89.136 138.115 88.653 138.422 87.668 138.75 86.681 139.101 85.695L145.741 67.878 155.241 67.878 141.369 102.789 133.052 102.789"/>
    <polygon fill="#FFF" fill-rule="nonzero" points="205.558 254.514 297.94 213.763 337 236.182 337 267.226 297.658 249.955 205.395 290.655 113.86 249.284 0 279.993 0 247.286 116.874 214.433"/>
  </g>
</svg>
