<svg xmlns="http://www.w3.org/2000/svg" width="32" height="32" viewBox="0 0 32 32">
  <g fill="none" fill-rule="evenodd">
    <rect width="32" height="32" fill="#1666CB" rx="6"/>
    <g fill="#FFF" transform="translate(8 8)">
      <path d="M15.375,11 C15.7201875,11 16,10.7201875 16,10.375 L16,3.75 C16,2.3715 14.8785,1.25 13.5,1.25 L12.6875,1.25 L12.6875,0.625 C12.6875,0.2798125 12.4076875,0 12.0625,0 C11.7173125,0 11.4375,0.2798125 11.4375,0.625 L11.4375,1.25 L8.59375,1.25 L8.59375,0.625 C8.59375,0.2798125 8.3139375,0 7.96875,0 C7.6235625,0 7.34375,0.2798125 7.34375,0.625 L7.34375,1.25 L4.53125,1.25 L4.53125,0.625 C4.53125,0.2798125 4.2514375,0 3.90625,0 C3.5610625,0 3.28125,0.2798125 3.28125,0.625 L3.28125,1.25 L2.5,1.25 C1.1215,1.25 0,2.3715 0,3.75 L0,13.5 C0,14.8785 1.1215,16 2.5,16 L13.5,16 C14.8785,16 16,14.8785 16,13.5 C16,13.1548125 15.7201875,12.875 15.375,12.875 C15.0298125,12.875 14.75,13.1548125 14.75,13.5 C14.75,14.18925 14.18925,14.75 13.5,14.75 L2.5,14.75 C1.81075,14.75 1.25,14.18925 1.25,13.5 L1.25,3.75 C1.25,3.06075 1.81075,2.5 2.5,2.5 L3.28125,2.5 L3.28125,3.125 C3.28125,3.4701875 3.5610625,3.75 3.90625,3.75 C4.2514375,3.75 4.53125,3.4701875 4.53125,3.125 L4.53125,2.5 L7.34375,2.5 L7.34375,3.125 C7.34375,3.4701875 7.6235625,3.75 7.96875,3.75 C8.3139375,3.75 8.59375,3.4701875 8.59375,3.125 L8.59375,2.5 L11.4375,2.5 L11.4375,3.125 C11.4375,3.4701875 11.7173125,3.75 12.0625,3.75 C12.4076875,3.75 12.6875,3.4701875 12.6875,3.125 L12.6875,2.5 L13.5,2.5 C14.18925,2.5 14.75,3.06075 14.75,3.75 L14.75,10.375 C14.75,10.7201875 15.0298125,11 15.375,11 Z"/>
      <circle cx="3.906" cy="6.563" r="1"/>
      <circle cx="9.344" cy="6.563" r="1"/>
      <circle cx="12.063" cy="6.563" r="1"/>
      <circle cx="3.906" cy="9.281" r="1"/>
      <circle cx="3.906" cy="12" r="1"/>
      <circle cx="6.625" cy="6.563" r="1"/>
      <circle cx="6.625" cy="9.281" r="1"/>
      <circle cx="6.625" cy="12" r="1"/>
      <circle cx="9.344" cy="9.281" r="1"/>
      <circle cx="12.063" cy="9.281" r="1"/>
      <circle cx="9.344" cy="12" r="1"/>
    </g>
  </g>
</svg>
