<svg xmlns="http://www.w3.org/2000/svg" width="22" height="22" viewBox="0 0 22 22">
  <g fill="#FFF" fill-rule="evenodd">
    <path d="M21.140625,15.125 C21.6152578,15.125 22,14.7402578 22,14.265625 L22,5.15625 C22,3.2608125 20.4579375,1.71875 18.5625,1.71875 L17.4453125,1.71875 L17.4453125,0.859375 C17.4453125,0.384742187 17.0605703,0 16.5859375,0 C16.1113047,0 15.7265625,0.384742187 15.7265625,0.859375 L15.7265625,1.71875 L11.8164062,1.71875 L11.8164062,0.859375 C11.8164062,0.384742187 11.4316641,0 10.9570312,0 C10.4823984,0 10.0976562,0.384742187 10.0976562,0.859375 L10.0976562,1.71875 L6.23046875,1.71875 L6.23046875,0.859375 C6.23046875,0.384742187 5.84572656,0 5.37109375,0 C4.89646094,0 4.51171875,0.384742187 4.51171875,0.859375 L4.51171875,1.71875 L3.4375,1.71875 C1.5420625,1.71875 0,3.2608125 0,5.15625 L0,18.5625 C0,20.4579375 1.5420625,22 3.4375,22 L18.5625,22 C20.4579375,22 22,20.4579375 22,18.5625 C22,18.0878672 21.6152578,17.703125 21.140625,17.703125 C20.6659922,17.703125 20.28125,18.0878672 20.28125,18.5625 C20.28125,19.5102187 19.5102187,20.28125 18.5625,20.28125 L3.4375,20.28125 C2.48978125,20.28125 1.71875,19.5102187 1.71875,18.5625 L1.71875,5.15625 C1.71875,4.20853125 2.48978125,3.4375 3.4375,3.4375 L4.51171875,3.4375 L4.51171875,4.296875 C4.51171875,4.77150781 4.89646094,5.15625 5.37109375,5.15625 C5.84572656,5.15625 6.23046875,4.77150781 6.23046875,4.296875 L6.23046875,3.4375 L10.0976562,3.4375 L10.0976562,4.296875 C10.0976562,4.77150781 10.4823984,5.15625 10.9570312,5.15625 C11.4316641,5.15625 11.8164062,4.77150781 11.8164062,4.296875 L11.8164062,3.4375 L15.7265625,3.4375 L15.7265625,4.296875 C15.7265625,4.77150781 16.1113047,5.15625 16.5859375,5.15625 C17.0605703,5.15625 17.4453125,4.77150781 17.4453125,4.296875 L17.4453125,3.4375 L18.5625,3.4375 C19.5102187,3.4375 20.28125,4.20853125 20.28125,5.15625 L20.28125,14.265625 C20.28125,14.7402578 20.6659922,15.125 21.140625,15.125 Z"/>
    <circle cx="5.371" cy="9.023" r="1"/>
    <circle cx="12.848" cy="9.023" r="1"/>
    <circle cx="16.586" cy="9.023" r="1"/>
    <circle cx="5.371" cy="12.762" r="1"/>
    <circle cx="5.371" cy="16.5" r="1"/>
    <circle cx="9.109" cy="9.023" r="1"/>
    <circle cx="9.109" cy="12.762" r="1"/>
    <circle cx="9.109" cy="16.5" r="1"/>
    <circle cx="12.848" cy="12.762" r="1"/>
    <circle cx="16.586" cy="12.762" r="1"/>
    <circle cx="12.848" cy="16.5" r="1"/>
  </g>
</svg>
