<svg xmlns="http://www.w3.org/2000/svg" width="22" height="22" viewBox="0 0 22 22">
  <path fill="#FFF" d="M19.5,6.86813314 C21.0970915,6.86813314 22.1528133,8.12125 22.1528133,9.5 L22.1528133,9.5 L22.1501697,21.5427883 C22.1501697,21.7827883 22.0126697,22.0015383 21.7964197,22.1065383 C21.7089197,22.1477883 21.4636064,22.1677883 21.3723564,22.1677883 C21.2336064,22.1677883 21.0948564,22.1215383 20.9811064,22.0315383 L20.9811064,22.0315383 L18.0031603,19.6696795 L9.47316028,19.6696795 C8.09441028,19.6696795 6.79931061,18.37875 6.79931061,17 L6.79931061,17 L6.79931061,16.375 C6.79931061,16.03 7.18665665,15.7191159 7.53165665,15.7191159 C7.87665665,15.7191159 8.25,16.03 8.25,16.375 L8.25,16.375 L8.25,17 C8.25,17.68875 8.81,18.25 9.5,18.25 L9.5,18.25 L18.25,18.25 C18.39125,18.25 18.53,18.29875 18.64,18.38625 L18.64,18.38625 L20.75,20.07375 L20.75,9.5 C20.75,8.81125 20.19,8.25 19.5,8.25 C19.155,8.25 18.8804675,7.84256909 18.8804675,7.49756909 C18.8804675,7.15256909 19.155,6.86813314 19.5,6.86813314 Z M15.75,1.75533231 C17.6429876,1.75533231 18.3805896,3.12125 18.3805896,4.5 L18.3805896,4.5 L18.3805896,12 C18.3805896,13.37875 17.4748049,14.6832308 15.7319419,14.6832308 L15.7319419,14.6832308 L6.72010124,14.6832308 L3.13265907,17.56625 C3.01890907,17.66125 2.60737159,17.733334 2.46362159,17.733334 C2.37362159,17.733334 2.15183887,17.605 2.06808887,17.56625 C1.84808887,17.46375 1.77555877,17.298051 1.77555877,17.055551 L1.77555877,17.055551 L1.77555877,4.55555103 C1.77555877,3.17680103 2.625,1.75533231 4.5,1.75533231 L4.5,1.75533231 Z M15.75,3.25 L4.5,3.25 C3.81,3.25 3.25,3.81125 3.25,4.5 L3.25,4.5 L3.25,15.66625 L5.975,13.395 C6.0875,13.30125 6.22875,13.25 6.375,13.25 L6.375,13.25 L15.75,13.25 C16.44,13.25 17,12.68875 17,12 L17,12 L17,4.5 C17,3.81125 16.44,3.25 15.75,3.25 L15.75,3.25 Z M11.375,8.25 C11.72,8.25 12,8.53 12,8.875 C12,9.22 11.72,9.5 11.375,9.5 L11.375,9.5 L6.375,9.5 C6.03,9.5 5.75,9.22 5.75,8.875 C5.75,8.53 6.03,8.25 6.375,8.25 L6.375,8.25 Z M13.875,5.75 C14.22,5.75 14.5,6.03 14.5,6.375 C14.5,6.72 14.22,7 13.875,7 L13.875,7 L6.375,7 C6.03,7 5.75,6.72 5.75,6.375 C5.75,6.03 6.03,5.75 6.375,5.75 L6.375,5.75 Z" transform="translate(-1 -1)"/>
</svg>
