<svg xmlns="http://www.w3.org/2000/svg" width="32" height="32" viewBox="0 0 32 32">
  <g fill="none" fill-rule="evenodd">
    <rect width="32" height="32" fill="#1666CB" rx="6"/>
    <path fill="#FFF" fill-rule="nonzero" d="M22.996707,17.4067082 C23.5987077,16.8037171 23.8550653,15.9445826 23.6818558,15.1114033 C23.5086107,14.2780528 22.9300854,13.5922007 22.1380841,13.2804229 L11.5974237,9.1335157 C10.8859527,8.85505058 10.0962695,9.01938014 9.55774965,9.55909897 C9.01984254,10.0970258 8.85516048,10.8871972 9.13319038,11.5964362 L13.2796377,22.1376891 C13.5914823,22.929921 14.2773082,23.5084683 15.110627,23.6817201 C15.2811218,23.7171614 15.4533514,23.7348204 15.6264271,23.7348204 C16.2927415,23.7348204 16.9313277,23.4710799 17.4058443,22.9965451 L19.2954308,21.1068865 L21.8132458,23.6247977 C22.0557934,23.8673545 22.3820324,24 22.7184712,24 C23.0549099,24 23.3811489,23.8673545 23.6236965,23.6247977 C24.1245652,23.1281662 24.1258891,22.3152506 23.6249356,21.814278 L21.1071205,19.2963668 L22.996707,17.4067082 Z M19.9379648,20.464328 L18.6528967,20.464328 L19.2954308,21.1068865 L19.9379648,20.464328 Z M22.3413683,22.3369521 C22.4399715,22.2383334 22.577121,22.1825698 22.7184712,22.1825698 C22.8598213,22.1825698 22.9969708,22.2383334 23.098314,22.3396805 L19.2954308,18.5366522 L16.1207761,21.7114279 C15.9875645,21.8446447 15.811428,21.9173903 15.6264271,21.9173903 C15.5774306,21.9173903 15.529139,21.9124388 15.4805149,21.9023312 C15.2474335,21.8538722 15.0581695,21.6942133 14.9707751,21.4721906 L10.8247931,10.9321221 C10.8107225,10.8962271 10.8159659,10.8710683 10.8435196,10.8435135 C10.871418,10.8155538 10.8956491,10.8105114 10.9335857,10.8253595 L21.4725849,14.9716147 C21.6944249,15.0589438 21.8540777,15.2482151 21.9025406,15.4813332 C21.9511535,15.7151729 21.8802886,15.9526633 21.711123,16.1221073 L19.1795183,18.6538082 L18.5369842,19.2963668 L22.3398674,23.0993952 C22.1292483,22.888768 22.1298054,22.5467301 22.3413683,22.3369521 Z"/>
  </g>
</svg>
