<svg xmlns="http://www.w3.org/2000/svg" width="160" height="147" viewBox="0 0 160 147">
  <defs>
    <linearGradient id="csv-a" x1="50%" x2="50%" y1="0%" y2="100%">
      <stop offset="0%" stop-color="#0052E2"/>
      <stop offset="100%" stop-color="#0089FF"/>
    </linearGradient>
  </defs>
  <g fill="none" fill-rule="evenodd">
    <path fill="url(#csv-a)" d="M3.11167664,41.8656006 C14.5594112,3.87257115 54.7591068,-6.49299472 97.431466,3.67501453 C117.766447,8.52045257 144.861438,17.5245127 154.651159,34.1089677 C165.404879,52.3265039 157.599697,78.8274805 151.607237,98.7154054 C140.159503,136.708435 97.7733139,154.33059 55.1009547,144.162581 C12.4285955,133.994571 -8.33605791,79.85863 3.11167664,41.8656006 Z M96.99945,32 L43.3748969,32 L43.0603258,32.0034685 C36.369784,32.1511649 31,36.9971411 31,42.9564741 L31,42.9564741 L31,97.7388446 L31.005016,98.1419779 C31.1219382,102.839303 33.2788115,107.321346 37.0424559,110.650136 C40.9096112,114.077595 46.1544018,116 51.6252406,116 L51.6252406,116 L109.374759,116 L109.85683,115.995022 C115.152535,115.885615 120.204129,113.976788 123.957544,110.650136 C127.828721,107.226238 130,102.582611 130,97.7388446 L130,97.7388446 L130,94.0866866 L129.993376,93.8795353 C129.936122,92.9853504 129.509693,92.1403863 128.791488,91.5045195 C128.018037,90.8197399 126.970728,90.4345285 125.875034,90.4345285 L125.875034,90.4345285 L109.374347,90.4345285 L109.374347,42.9564741 L109.370429,42.6779595 C109.203612,36.7542941 103.730277,32 96.99945,32 L96.99945,32 Z M96.99945,39.3043161 C98.095144,39.3043161 99.1424728,39.6895092 99.9159038,40.3743071 C100.689335,41.059105 101.124416,41.9863696 101.124416,42.9564741 L101.124416,42.9564741 L101.124416,90.4345285 L68.1246906,90.4345285 L67.9122607,90.4392761 C65.7312086,90.5369996 63.999725,92.13113 63.999725,94.0866866 L63.999725,94.0866866 L63.999725,97.7388446 L63.9958075,98.0173592 C63.8289903,103.941025 58.3556551,108.695319 51.6248281,108.695319 C44.788832,108.695319 39.2499313,103.791292 39.2499313,97.7388446 L39.2499313,97.7388446 L39.2499313,42.9564741 L39.2552935,42.7683931 C39.3656682,40.8373353 41.1661744,39.3043161 43.3748969,39.3043161 L43.3748969,39.3043161 Z M121.748831,97.7388446 C121.748831,103.791292 116.209931,108.695319 109.373934,108.695319 L109.373934,108.695319 L68.019504,108.695319 L68.2975862,108.367763 C70.8514033,105.287403 72.2374947,101.564619 72.2492438,97.7388446 L72.2492438,97.7388446 Z M88.7039711,75.7433962 L51.566787,75.7433962 L51.3542856,75.7481349 C49.1724995,75.8456744 47.4404332,77.4368039 47.4404332,79.3886792 C47.4404332,81.4035183 49.2860481,83.0339623 51.566787,83.0339623 L51.566787,83.0339623 L88.7039711,83.0339623 L88.9164726,83.0292236 C91.0982586,82.9316841 92.8303249,81.3405546 92.8303249,79.3886792 C92.8303249,77.3738402 90.98471,75.7433962 88.7039711,75.7433962 L88.7039711,75.7433962 Z M88.7039711,61.1622642 L51.566787,61.1622642 L51.3542856,61.1670028 C49.1724995,61.2645423 47.4404332,62.8556718 47.4404332,64.8075472 C47.4404332,66.8223862 49.2860481,68.4528302 51.566787,68.4528302 L51.566787,68.4528302 L88.7039711,68.4528302 L88.9164726,68.4480915 C91.0982586,68.3505521 92.8303249,66.7594225 92.8303249,64.8075472 C92.8303249,62.7927081 90.98471,61.1622642 88.7039711,61.1622642 L88.7039711,61.1622642 Z M88.7039711,46.5811321 L51.566787,46.5811321 L51.3542856,46.5858707 C49.1724995,46.6834102 47.4404332,48.2745398 47.4404332,50.2264151 C47.4404332,52.2412542 49.2860481,53.8716981 51.566787,53.8716981 L51.566787,53.8716981 L88.7039711,53.8716981 L88.9164726,53.8669594 C91.0982586,53.76942 92.8303249,52.1782904 92.8303249,50.2264151 C92.8303249,48.211576 90.98471,46.5811321 88.7039711,46.5811321 L88.7039711,46.5811321 Z"/>
    <text fill="#FFF" font-family="Arial-BoldMT, Arial" font-size="14" font-weight="bold">
      <tspan x="115.162" y="73">.CSV</tspan>
    </text>
  </g>
</svg>
