<svg xmlns="http://www.w3.org/2000/svg" width="512" height="506" viewBox="0 0 512 506">
  <g fill="#FFF">
    <polygon points="7.8 215.5 24.2 188.1 256 327.1 487.8 188.1 504.2 215.5 256 364.5 7.8 215.6"/>
    <path d="M229.9,335.6 L24.1,455.6 L7.9,428 L213.7,307.9 L229.9,335.6 Z M282.1,335.6 L487.9,455.7 L504,428.1 L298.2,307.9 L282.1,335.6 Z"/>
    <path d="M271,36 C261.6,31 250.3,31 240.9,36 L49,138.4 C38.6,144 32,154.8 32,166.6 L32,441.8 C32,459.5 46.3,473.8 64,473.8 L448,473.8 C465.7,473.8 480,459.5 480,441.8 L480,166.6 C480,154.8 473.5,143.9 463,138.4 L271,36 Z M225.9,7.7 C244.7,-2.3 267.3,-2.3 286.1,7.7 L478.1,110.1 C499,121.2 512,143 512,166.6 L512,441.8 C512,477.1 483.3,505.8 448,505.8 L64,505.8 C28.6,505.8 0,477.1 0,441.8 L0,166.6 C0,143 13,121.2 33.9,110.1 L225.9,7.7 L225.9,7.7 Z"/>
  </g>
</svg>
