<svg xmlns="http://www.w3.org/2000/svg" width="118" height="107" viewBox="0 0 118 107">
  <g fill="#DD3D42" fill-rule="evenodd" transform="translate(.689 .44)">
    <path d="M51.6600427,80.3419618 C49.8860427,70.8879618 63.0930427,69.2129618 64.9040427,77.0919618 C65.3300427,78.9459618 65.0530427,81.1899618 64.0060427,82.6509618 C60.6350427,87.3539618 52.8280427,86.5649618 51.6600427,80.3419618 Z M63.5450427,48.8609618 C63.1380427,52.8819618 63.2020427,64.5839618 61.2830427,66.6119618 C58.4040427,69.6539618 53.9610427,67.3009618 54.1260427,63.6369618 C53.8390427,62.9689618 52.0960427,39.7029618 52.1540427,37.0219618 C52.3370427,28.6079618 64.5160427,28.8679618 64.2890427,37.4569618 C64.1890427,41.2369618 63.6140427,45.0539618 63.5450427,48.8609618 Z M23.3160427,68.1169618 C21.8260427,70.7499618 20.3800427,73.2469618 18.7730427,75.9979618 C17.2300427,78.6389618 15.8770427,81.0969618 14.2410427,83.8739618 C13.0130427,85.9569618 9.97004268,89.6949618 11.5930427,92.2789618 C13.1560427,94.7689618 19.4820427,93.9359618 22.7130427,93.9359618 L96.0110427,93.9359618 C99.3930427,93.9369618 104.881043,94.9279618 105.489043,90.9879618 C105.890043,88.3969618 82.6290427,50.0389618 76.9230427,39.8569618 L68.9480427,25.9889618 C68.0020427,24.2679618 67.2580427,23.1399618 66.2460427,21.3849618 C65.1610427,19.5019618 61.8940427,13.2299618 60.9140427,12.1499618 C59.4020427,10.4879618 56.6360427,10.8239618 55.4740427,12.3859618 C54.4370427,13.7779618 49.2100427,23.1479618 44.4330427,31.6179618 C23.7380427,68.3069618 40.3800427,37.9639618 23.3160427,68.1169618 L23.3160427,68.1169618 Z"/>
    <path d="M45.3430427,18.8909618 C48.4490427,13.3779618 51.1730427,6.76896183 56.5830427,5.64996183 C60.5780427,4.82296183 63.6760427,6.97696183 65.5360427,9.16196183 C79.0370427,32.3889618 92.2520427,55.8099618 105.894043,78.9399618 C108.745043,83.7739618 114.170043,90.5999618 108.688043,96.4139618 C106.023043,99.2379618 104.073043,99.3309618 99.4360427,99.3149618 C71.7850427,99.3139618 41.5430427,100.659962 14.1670427,99.2999618 C7.11004268,98.9499618 3.25704268,91.8759618 7.07904268,85.2169618 C19.7850427,63.0839618 32.8140427,41.1239618 45.3430427,18.8909618 Z M4.43204268,78.7699618 C2.70904268,81.8309618 0.321042684,84.8859618 0.0430426845,88.9859618 C-0.282957316,93.7769618 1.27104268,97.4699618 3.74804268,100.102962 C9.85504268,106.594962 18.2810427,104.920962 28.7040427,104.920962 L87.4290427,104.920962 C97.5380427,104.920962 106.538043,106.579962 112.598043,100.323962 C119.661043,93.0329618 116.027043,85.4789618 112.289043,79.0419618 C101.155043,59.8709618 90.4280427,40.4349618 79.0190427,21.4399618 C72.2750427,10.2119618 69.4230427,-1.04103817 56.1400427,0.0769618326 C53.1020427,1.21696183 51.6400427,1.05496183 49.2890427,3.14196183 C45.6020427,6.41396183 39.7360427,17.5409618 36.9110427,22.5199618 C26.2000427,41.3949618 15.0720427,59.8549618 4.43204268,78.7699618 L4.43204268,78.7699618 Z"/>
  </g>
</svg>
