<svg xmlns="http://www.w3.org/2000/svg" width="23" height="20" viewBox="0 0 23 20">
  <path fill="#FFF" fill-rule="evenodd" d="M72.953,310.343 L72.953,310.343 C72.736,310.126 72.449,310 72.148,310 C71.819,310 71.532,310.126 71.329,310.343 C71.112,310.539 71,310.833 71,311.148 C71,311.463 71.112,311.743 71.329,311.953 C71.532,312.163 71.819,312.282 72.148,312.282 C72.449,312.282 72.736,312.163 72.953,311.953 C73.156,311.743 73.282,311.463 73.282,311.148 C73.282,310.833 73.156,310.539 72.953,310.343 L72.953,310.343 Z M54.344,302 L54.344,302 L53.672,302 C53.476,302 53.315,302.077 53.189,302.196 C53.07,302.322 53,302.483 53,302.665 C53,302.854 53.07,303.029 53.189,303.148 C53.315,303.274 53.476,303.344 53.672,303.344 L54.344,303.344 L54.344,302 Z M72.1624222,308.787781 L72.1624222,308.787781 C72.9368987,308.787781 73.6528014,309.102894 74.1669496,309.617363 C74.6810979,310.131833 75,310.819936 75,311.610932 C75,312.389068 74.6810979,313.096463 74.1669496,313.604502 C73.6528014,314.11254 72.9368987,314.427653 72.1624222,314.427653 C71.3619128,314.427653 70.6460102,314.11254 70.1318619,313.604502 C69.9561404,313.430868 69.7934352,313.21865 69.6632711,313.006431 C69.3313526,313.270096 69.0384833,313.598071 68.8172043,313.951768 C68.4332201,314.549839 68.2054329,315.263666 68.2054329,316.028939 L68.2054329,316.041801 L68.2054329,316.054662 L68.2054329,316.067524 C68.1924165,317.430868 67.6327108,318.646302 66.7280702,319.553055 C65.8234295,320.440514 64.573854,321 63.1876061,321 C61.8013582,321 60.5387663,320.440514 59.6406338,319.553055 C58.7229768,318.646302 58.1632711,317.411576 58.1632711,316.041801 L58.1632711,313.655949 C56.5232032,313.5209 55.065365,312.819936 53.9654782,311.73955 C52.7484437,310.543408 52,308.884244 52,307.051447 L52,302.70418 L52,302.672026 C52,302.215434 52.188738,301.803859 52.5076401,301.501608 C52.8135257,301.186495 53.2365591,301 53.70515,301 L54.8701188,301 C55.1564799,301 55.4102999,301.237942 55.4102999,301.527331 L55.4102999,301.540193 L55.4102999,303.823151 C55.4102999,304.118971 55.1564799,304.363344 54.8701188,304.363344 L54.8505942,304.363344 L53.7897566,304.363344 L53.7897566,307.051447 C53.7897566,308.389068 54.336446,309.604502 55.2280702,310.4791 C56.1196944,311.360129 57.3497453,311.913183 58.6904358,311.913183 L60.1482739,311.913183 C61.4954726,311.913183 62.7320317,311.360129 63.6171477,310.4791 C64.5022637,309.604502 65.048953,308.389068 65.048953,307.051447 L65.048953,304.363344 L63.9946237,304.363344 L63.9816072,304.363344 C63.6822298,304.363344 63.4414261,304.118971 63.4414261,303.823151 L63.4414261,301.540193 L63.4414261,301.527331 C63.4414261,301.237942 63.6822298,301 63.9816072,301 L65.1465761,301 C65.6151669,301 66.0447085,301.186495 66.3505942,301.501608 C66.6564799,301.803859 66.8452179,302.215434 66.8452179,302.672026 L66.8452179,302.70418 L66.8452179,307.051447 C66.8452179,308.884244 66.0967742,310.543408 64.8797397,311.73955 C63.6692134,312.92926 61.9900962,313.675241 60.1482739,313.675241 L59.2306169,313.675241 L59.2306169,316.041801 C59.2306169,317.115756 59.6796831,318.093248 60.3825693,318.794212 C61.1114884,319.501608 62.0942275,319.938907 63.1876061,319.938907 C64.2809847,319.938907 65.2507074,319.501608 65.9731183,318.794212 C66.6825127,318.093248 67.1250707,317.128617 67.1250707,316.054662 L67.1250707,316.041801 L67.1250707,316.028939 C67.1380872,315.051447 67.41794,314.151125 67.8995473,313.385852 C68.2640068,312.819936 68.745614,312.318328 69.311828,311.945338 C69.311828,311.829582 69.2988115,311.713826 69.2988115,311.610932 C69.2988115,310.819936 69.6177136,310.131833 70.1318619,309.617363 C70.6460102,309.102894 71.3619128,308.787781 72.1624222,308.787781 L72.1624222,308.787781 Z M64.672,302 L64,302 L64,303.344 L64.672,303.344 C64.861,303.344 65.022,303.274 65.148,303.148 C65.267,303.029 65.351,302.854 65.351,302.665 C65.351,302.483 65.267,302.322 65.148,302.196 C65.022,302.077 64.861,302 64.672,302 L64.672,302 Z" transform="translate(-52 -301)"/>
</svg>
