<svg xmlns="http://www.w3.org/2000/svg" width="32" height="32" viewBox="0 0 32 32">
  <g fill="none" fill-rule="evenodd">
    <rect width="32" height="32" fill="#1666CB" rx="6"/>
    <g transform="translate(8 8)">
      <path fill="#FFF" fill-rule="nonzero" d="M8,3.63636364 C5.59353535,3.63636364 3.63636364,5.59434343 3.63636364,8 C3.63636364,8.26747475 3.4189899,8.48484848 3.15151515,8.48484848 C2.8840404,8.48484848 2.66666667,8.26747475 2.66666667,8 C2.66666667,5.05858586 5.05939394,2.66666667 8,2.66666667 C8.79191919,2.66666667 9.55555556,2.83636364 10.2682828,3.17171717 C10.5107071,3.28565657 10.6149495,3.57414141 10.5010101,3.81737374 C10.3870707,4.05979798 10.0985859,4.16484848 9.85616162,4.04929293 C9.27272727,3.77535354 8.64808081,3.63636364 8,3.63636364 Z"/>
      <g fill="#FFF" transform="translate(6.222 5.333)">
        <circle cx="1.778" cy="4.444" r="1.778"/>
        <rect width="1.778" height="4.444" x=".889" rx=".889"/>
      </g>
      <path stroke="#FFF" stroke-width="1.778" d="M8,0.888888889 C9.960587,0.888888889 11.7381492,1.68673732 13.0257059,2.97429408 C14.3132627,4.26185084 15.1111111,6.039413 15.1111111,8 C15.1111111,9.960587 14.3132627,11.7381492 13.0257059,13.0257059 C11.7381492,14.3132627 9.960587,15.1111111 8,15.1111111 C6.039413,15.1111111 4.26185084,14.3132627 2.97429408,13.0257059 C1.68673732,11.7381492 0.888888889,9.960587 0.888888889,8 C0.888888889,6.039413 1.68673732,4.26185084 2.97429408,2.97429408 C4.26185084,1.68673732 6.039413,0.888888889 8,0.888888889 Z"/>
    </g>
  </g>
</svg>
