<svg xmlns="http://www.w3.org/2000/svg" width="500" height="445" viewBox="0 0 500 445">
  <g fill="none" fill-rule="evenodd" transform="translate(0 .91)">
    <path fill="#CECECE" d="M421.538462,6.93910256 L421.538462,44.7211538 C421.538462,48.4262821 418.532051,51.4326923 414.826923,51.4326923 L86.0705128,51.4326923 C82.3653846,51.4326923 79.3589744,48.4262821 79.3589744,44.7211538 L79.3589744,6.93910256 C79.3589744,3.10576923 82.4647436,0 86.2948718,0 L414.599359,0 C418.432692,0 421.538462,3.10576923 421.538462,6.93910256"/>
    <path fill="#EFB941" d="M500,203.198077 L299.259615,203.198077 C299.259615,215.945513 288.826923,226.378205 276.076923,226.378205 L223.922115,226.378205 C211.057372,226.378205 200.741667,215.945513 200.741667,203.198077 L3.6438089e-14,203.198077 L61.0804487,159.966987 L438.804487,159.966987 L500,203.198077"/>
    <path fill="#E6E4DF" d="M64.0003205,24.2897436 L64.0003205,239.852564 L436,239.852564 L436,24.2897436 C436,20.4955128 432.923077,17.4198718 429.128205,17.4198718 L70.8701923,17.4198718 C67.0762821,17.4198718 64.0003205,20.4955128 64.0003205,24.2897436"/>
    <path fill="#FFD456" d="M498.608974,203.198077 L498.608974,377.862179 C498.608974,414.022436 469.285256,443.346154 433.125,443.346154 L65.3685897,443.346154 C29.3233974,443.346154 0,414.022436 0,377.862179 L0,203.198077 L200.741667,203.198077 C200.741667,215.945513 211.057372,226.378205 223.922115,226.378205 L276.076923,226.378205 C288.826923,226.378205 299.259615,215.945513 299.259615,203.198077 L498.608974,203.198077"/>
    <polygon fill="#BFBEBE" points="103.769 65.12 397.128 65.12 397.128 50.152 103.769 50.152"/>
    <polygon fill="#BFBEBE" points="102.625 107.926 395.984 107.926 395.984 92.958 102.625 92.958"/>
    <polygon fill="#BFBEBE" points="102.625 150.732 395.984 150.732 395.984 135.765 102.625 135.765"/>
    <path fill="#D7A33D" d="M465.230769,250.487179 C465.230769,252.804487 463.375,254.541667 461.057692,254.541667 L388.733974,254.541667 C386.416667,254.541667 384.676282,252.804487 384.676282,250.487179 C384.676282,248.285256 386.416667,246.429487 388.733974,246.429487 L461.057692,246.429487 C463.375,246.429487 465.230769,248.285256 465.230769,250.487179"/>
  </g>
</svg>
