<svg xmlns="http://www.w3.org/2000/svg" width="161" height="153" viewBox="0 0 161 153">
  <g fill="none" fill-rule="evenodd" stroke="#FFF" stroke-width="2">
    <path d="M80.5,1 C82.827586,1 85.1115712,1.63144746 87.108608,2.82706472 L87.108608,2.82706472 L112.968394,18.3092061 L159.513673,46.1756621 C159.815345,46.356272 160,46.6820434 160,47.0336484 L160,47.0336484 L160,151 C160,151.276142 159.888071,151.526142 159.707107,151.707107 C159.526142,151.888071 159.276142,152 159,152 L159,152 L2,152 C1.72385763,152 1.47385763,151.888071 1.29289322,151.707107 C1.11192881,151.526142 1,151.276142 1,151 L1,151 L1,47.0336484 C1,46.6820434 1.18465514,46.356272 1.48632736,46.1756621 L1.48632736,46.1756621 L73.891392,2.82706472 C75.8884288,1.63144746 78.172414,1 80.5,1 Z"/>
    <path d="M80.5,47 C82.8283295,47 85.1132837,47.6299429 87.1126804,48.8230612 L87.1126804,48.8230612 L160,92.3177769 L160,103.47749 C160,103.753632 159.888071,104.003632 159.707107,104.184596 C159.526142,104.365561 159.276142,104.47749 159,104.47749 C158.819571,104.47749 158.642504,104.428674 158.487565,104.336216 L158.487565,104.336216 L85.3192558,60.6738225 C84.8544391,60.3964482 84.3232364,60.25 83.7819499,60.25 L83.7819499,60.25 L77.2180501,60.25 C76.6767636,60.25 76.1455609,60.3964482 75.6807442,60.6738225 L75.6807442,60.6738225 L2.51243531,104.336216 C2.27530472,104.477721 2.00326698,104.509713 1.75513562,104.447047 C1.50700426,104.384381 1.28277927,104.227056 1.14127417,103.989925 C1.04881606,103.834986 1,103.657919 1,103.47749 L1,103.47749 L1,92.3177769 L73.8873196,48.8230612 C75.8867163,47.6299429 78.1716705,47 80.5,47 Z" transform="matrix(1 0 0 -1 0 153)"/>
  </g>
</svg>
