<svg xmlns="http://www.w3.org/2000/svg" width="21" height="20" viewBox="0 0 21 20">
  <g fill="none" fill-rule="evenodd" stroke="#FFF" stroke-width="2">
    <path d="M10.0857493,1.1147408 C10.6459301,1 10.7891167,1.03966037 10.9142507,1.1147408 L10.9142507,1.1147408 L14.2875129,3.13869814 L19.5144958,6.27488783 C19.8157012,6.45561108 20,6.78111791 20,7.13238076 L20,7.13238076 L20,18 C20,18.2761424 19.8880712,18.5261424 19.7071068,18.7071068 C19.5261424,18.8880712 19.2761424,19 19,19 L19,19 L2,19 C1.72385763,19 1.47385763,18.8880712 1.29289322,18.7071068 C1.11192881,18.5261424 1,18.2761424 1,18 L1,18 L1,7.13238076 C1,6.78111791 1.18429883,6.45561108 1.48550424,6.27488783 L1.48550424,6.27488783 Z"/>
    <path transform="matrix(1 0 0 -1 0 20)"/>
  </g>
</svg>
