<svg xmlns="http://www.w3.org/2000/svg" width="611" height="171" viewBox="0 0 611 171">
  <g fill="none">
    <path fill="#FFF" d="M45.0133532,125.125728 L45.0133532,121.266722 C34.4993881,128.9583 21.1262671,129.842016 0,122.0105 C35.3735705,98.323773 27.1326643,60.5647919 59.2883572,57.4241837 C60.695036,52.5501928 61.6959945,47.1074426 61.9392974,40.8071855 C64.0132357,-13.6023952 144.98778,-13.6023952 147.060703,40.8071855 C147.304167,47.1074426 148.305056,52.5501928 149.711643,57.4241837 C181.867336,60.5742003 173.624121,98.323773 209,122.0105 C187.87304,129.833347 174.501304,128.958367 163.986647,121.266722 L163.986647,125.125728 C163.986647,186.291424 45.033667,186.291424 45.033667,125.125728 L45.0133532,125.125728 Z M84.9759774,29.7381545 C87.8254381,29.7381545 90.1338152,31.978246 90.1338152,34.7434148 C90.1338152,37.5085837 87.8254381,39.7486751 84.9759774,39.7486751 C82.1265167,39.7486751 79.8181396,37.5085837 79.8181396,34.7434148 C79.8181396,31.978246 82.1355194,29.7381545 84.9759774,29.7381545 Z M124.0014,29.7381545 C126.850861,29.7381545 129.159238,31.978246 129.159238,34.7434148 C129.159238,37.5085837 126.841858,39.7486751 124.0014,39.7486751 C121.15194,39.7486751 118.843563,37.5085837 118.843563,34.7434148 C118.843563,31.978246 121.15194,29.7381545 124.0014,29.7381545 Z M110.998774,40.6323912 L122.901228,47.6152042 L104.488227,70.0855613 L86.0752266,47.6152042 L97.9686779,40.6411275 C98.2211681,0.415805771 72.2510487,24.5579431 71.0968602,47.4664621 C69.9066148,71.1195875 57.8236919,80.5526125 57.8236919,97.1337692 L57.8236919,119.228463 C57.8236919,171.292668 151.132911,171.292668 151.132911,119.228463 L151.132911,97.1337692 C151.132911,80.5519404 139.419744,71.1016667 137.859742,47.4664621 C136.119434,20.9437796 112.16058,4.42310532 110.987925,40.6411275 L110.998774,40.6323912 Z"/>
    <g transform="translate(233 36)">
      <path fill="#FFF" d="M98.0257806,135 C101.92554,135 105.01285,133.931398 107.28771,131.794195 C109.56257,129.656992 110.7,127.133905 110.7,124.224934 C110.7,121.612797 110.05004,118.926451 108.75012,116.165897 C107.4502,113.405343 105.50032,110.184697 102.90048,106.503958 L66.030024,53.4300792 L98.0257806,22.974934 C101.984628,19.1754617 103.964051,15.3463061 103.964051,11.487467 C103.964051,8.28166227 102.797078,5.56563325 100.463131,3.33937995 C98.1291833,1.11312665 95.0714171,0 91.2898319,0 C88.3945556,0 86.0753803,0.623350923 84.3323058,1.87005277 C82.5892314,3.11675462 80.4768615,5.04617414 77.9951962,7.65831135 L26.3233787,61.8007916 L26.3233787,16.0290237 C26.3233787,10.6266491 25.0973179,6.60455145 22.6451962,3.96273087 C20.1930745,1.32091029 16.9875901,0 13.028743,0 C9.01080865,0 5.83486789,1.33575198 3.50092074,4.00725594 C1.16697358,6.67875989 0,10.6860158 0,16.0290237 L0,113.093668 C0,117.24934 0.0886309047,120.425462 0.265892714,122.622032 C0.443154524,124.818602 0.945396317,126.748021 1.77261809,128.41029 C2.89527622,130.42876 4.49063251,132.031662 6.55868695,133.218997 C8.62674139,134.406332 10.7834267,135 13.028743,135 C16.9285028,135 20.1192154,133.67909 22.6008807,131.037269 C25.082546,128.395449 26.3233787,124.343668 26.3233787,118.881926 L26.3233787,91.8997361 L47.8606886,71.1510554 L78.9701361,119.238127 C80.2109688,121.37533 81.6290633,123.75 83.2244195,126.362137 C84.8197758,128.974274 86.7696557,131.066953 89.0740592,132.640172 C91.3784628,134.213391 94.3623699,135 98.0257806,135 Z M139.816484,135 C143.376923,135 146.314286,133.751351 148.628571,131.254054 C150.942857,128.756757 152.1,125.07027 152.1,120.194595 L152.1,49.8243243 C152.1,45.4837838 150.942857,42.0945946 148.628571,39.6567568 C146.314286,37.2189189 143.376923,36 139.816484,36 C136.256044,36 133.363187,37.2189189 131.137912,39.6567568 C128.912637,42.0945946 127.8,45.7216216 127.8,50.5378378 L127.8,120.194595 C127.8,124.951351 128.912637,128.608108 131.137912,131.164865 C133.363187,133.721622 136.256044,135 139.816484,135 Z M185.983516,26.1 C189.247253,26.1 192.065934,25.0230337 194.43956,22.8691011 C196.813187,20.7151685 198,17.7269663 198,13.9044944 C198,9.96067416 196.783516,6.95730337 194.350549,4.89438202 C191.917582,2.83146067 189.128571,1.8 185.983516,1.8 C182.71978,1.8 179.856593,2.93764045 177.393956,5.21292135 C174.931319,7.48820225 173.7,10.3853933 173.7,13.9044944 C173.7,17.7876404 174.901648,20.7910112 177.304945,22.9146067 C179.708242,25.0382022 182.601099,26.1 185.983516,26.1 Z M185.716484,135 C189.276923,135 192.214286,133.751351 194.528571,131.254054 C196.842857,128.756757 198,125.07027 198,120.194595 L198,49.8243243 C198,45.4837838 196.842857,42.0945946 194.528571,39.6567568 C192.214286,37.2189189 189.276923,36 185.716484,36 C182.156044,36 179.263187,37.2189189 177.037912,39.6567568 C174.812637,42.0945946 173.7,45.7216216 173.7,50.5378378 L173.7,120.194595 C173.7,124.951351 174.812637,128.608108 177.037912,131.164865 C179.263187,133.721622 182.156044,135 185.716484,135 Z M230.85,135 C234.45,135 237.42,133.766216 239.76,131.298649 C242.1,128.831081 243.27,125.12973 243.27,120.194595 L243.27,99.8594595 C243.27,92.5459459 243.51,86.3472973 243.99,81.2635135 C244.47,76.1797297 245.34,71.7945946 246.6,68.1081081 C247.86,64.4216216 249.63,61.6418919 251.91,59.7689189 C254.19,57.8959459 257.13,56.9594595 260.73,56.9594595 C263.37,56.9594595 266.415,57.5094595 269.865,58.6094595 C273.315,59.7094595 275.49,60.2594595 276.39,60.2594595 C278.79,60.2594595 281.025,59.2932432 283.095,57.3608108 C285.165,55.4283784 286.2,52.9756757 286.2,50.0027027 C286.2,45.7810811 283.77,42.3918919 278.91,39.8351351 C274.05,37.2783784 269.04,36 263.88,36 C258.72,36 254.595,37.2783784 251.505,39.8351351 C248.415,42.3918919 245.4,46.1675676 242.46,51.1621622 C242.28,46.1675676 241.29,42.3918919 239.49,39.8351351 C237.69,37.2783784 234.75,36 230.67,36 C222.69,36 218.7,41.4702703 218.7,52.4108108 L218.7,120.194595 C218.7,125.07027 219.84,128.756757 222.12,131.254054 C224.4,133.751351 227.31,135 230.85,135 Z M366.589408,135 C369.537882,135 372.176765,133.976169 374.506059,131.928507 C376.835353,129.880845 378,127.610612 378,125.117806 C378,123.693345 377.248139,120.503147 375.744418,115.547212 C374.240697,110.591277 373.488836,105.828237 373.488836,101.258094 C373.547805,96.3911871 373.592032,91.9694245 373.621517,87.9928058 C373.651002,84.0161871 373.665744,79.1789568 373.665744,73.4811151 C373.665744,64.4595324 372.412643,57.2185252 369.906441,51.7580935 C367.400239,46.2976619 363.11021,42.306205 357.036355,39.783723 C350.9625,37.261241 342.618321,36 332.003817,36 C322.509733,36 314.57834,37.3057554 308.209637,39.9172662 C301.840935,42.528777 297.152863,45.852518 294.14542,49.8884892 C291.137977,53.9244604 289.634256,58.0791367 289.634256,62.352518 C289.634256,65.0827338 290.621994,67.3232914 292.597471,69.0741906 C294.572948,70.8250899 296.916985,71.7005396 299.62958,71.7005396 C302.637023,71.7005396 304.597758,71.1515288 305.511784,70.0535072 C306.425811,68.9554856 307.988502,66.6852518 310.199857,63.2428058 C312.411212,59.8003597 315.064838,57.2185252 318.160735,55.4973022 C321.256632,53.7760791 325.870992,52.9154676 332.003817,52.9154676 C339.139122,52.9154676 343.841937,54.4141187 346.112261,57.4114209 C348.382586,60.408723 349.665172,65.1124101 349.960019,71.522482 C344.888645,73.006295 340.18583,74.267536 335.851574,75.306205 C331.517319,76.3448741 326.313263,77.4874101 320.239408,78.7338129 C314.165553,79.9802158 310.362023,80.7814748 308.828817,81.1375899 C301.516603,82.7401079 295.76708,85.8857914 291.580248,90.5746403 C287.393416,95.2634892 285.3,100.931655 285.3,107.579137 C285.3,112.505396 286.567844,117.07554 289.103531,121.289568 C291.639218,125.503597 295.251097,128.842176 299.93917,131.305306 C304.627242,133.768435 310.067176,135 316.258969,135 C323.040458,135 329.15854,133.857464 334.613216,131.572392 C340.067891,129.28732 345.714218,125.859712 351.552195,121.289568 C354.26479,125.741007 356.829962,129.138939 359.24771,131.483363 C361.665458,133.827788 364.112691,135 366.589408,135 Z M323.765646,119.7 C319.275492,119.7 315.642013,118.395 312.865208,115.785 C310.088403,113.175 308.7,110.01 308.7,106.29 C308.7,102.69 309.881619,99.885 312.244858,97.875 C314.608096,95.865 317.089497,94.515 319.689059,93.825 C322.288621,93.135 326.970788,92.055 333.735558,90.585 C340.500328,89.115 345.655142,87.72 349.2,86.4 L349.2,89.91 C349.2,98.43 348.107002,104.55 345.921007,108.27 C344.030416,111.63 341.061597,114.375 337.014551,116.505 C332.967505,118.635 328.551204,119.7 323.765646,119.7 Z"/>
      <path fill="#FFD3D6" d="M140.131868,26 C143.355311,26 146.139194,24.9363296 148.483516,22.8089888 C150.827839,20.6816479 152,17.7303371 152,13.9550562 C152,10.0599251 150.798535,7.09363296 148.395604,5.05617978 C145.992674,3.01872659 143.238095,2 140.131868,2 C136.908425,2 134.080586,3.12359551 131.648352,5.37078652 C129.216117,7.61797753 128,10.4794007 128,13.9550562 C128,17.7902622 129.186813,20.7565543 131.56044,22.8539326 C133.934066,24.9513109 136.791209,26 140.131868,26 Z"/>
    </g>
  </g>
</svg>
