<svg xmlns="http://www.w3.org/2000/svg" width="32" height="32" viewBox="0 0 32 32">
  <g fill="none" fill-rule="evenodd">
    <rect width="32" height="32" fill="#1666CB" rx="6"/>
    <g transform="translate(8 9)">
      <path stroke="#FFF" stroke-width="1.667" d="M12.9638693,0.833329386 C13.5720461,0.834162989 14.122496,1.08107789 14.5210267,1.47982896 C14.9195585,1.87858117 15.1661704,2.42917034 15.1666698,3.03666667 L15.1666698,3.03666667 L15.1666706,9.45219163 C15.1658377,10.0601365 14.9191079,10.6104236 14.5206004,11.0089326 C14.122094,11.4074405 13.5718108,11.654171 12.9650115,11.6550032 L12.9650115,11.6550032 L4.06300166,11.6550032 L1.70107091,14.0188606 L0.833330169,3.03916667 C0.833330169,2.43063619 1.07977602,1.87959963 1.4783501,1.48048484 C1.87693285,1.08136136 2.42765132,0.834163692 3.03504923,0.833330169 L3.03504923,0.833330169 Z"/>
      <rect width="8" height="1.765" x="3.556" y="3.529" fill="#FFF" rx=".882"/>
      <rect width="3.556" height="1.765" x="3.556" y="7.059" fill="#FFF" rx=".882"/>
    </g>
  </g>
</svg>
