<svg xmlns="http://www.w3.org/2000/svg" width="356" height="291" viewBox="0 0 356 291">
  <defs>
    <linearGradient id="kiira-a" x1="50%" x2="50%" y1="0%" y2="100%">
      <stop offset="0%" stop-color="#FFC2C2"/>
      <stop offset="100%" stop-color="#0089FF"/>
    </linearGradient>
  </defs>
  <path fill="url(#kiira-a)" d="M76.6734629,212.933256 L76.6734629,206.366176 C58.764508,219.455353 35.9854119,220.959221 0,207.631903 C60.253546,167.322912 46.2164043,103.0664 100.988781,97.7218565 C103.384846,89.4275211 105.089828,80.1652971 105.504258,69.4438069 C109.036899,-23.1479356 246.964831,-23.1479356 250.495742,69.4438069 C250.910447,80.1652971 252.615311,89.4275211 255.011219,97.7218565 C309.783596,103.082411 295.742522,167.322912 356,207.631903 C320.013408,220.944468 297.236672,219.455467 279.326537,206.366176 L279.326537,212.933256 C279.326537,317.022248 76.7080643,317.022248 76.7080643,212.933256 L76.6734629,212.933256 Z M144.74377,50.6070349 C149.597397,50.6070349 153.529369,54.4191203 153.529369,59.1247586 C153.529369,63.8303968 149.597397,67.6424822 144.74377,67.6424822 C139.890143,67.6424822 135.958171,63.8303968 135.958171,59.1247586 C135.958171,54.4191203 139.905478,50.6070349 144.74377,50.6070349 Z M211.217697,50.6070349 C216.071323,50.6070349 220.003296,54.4191203 220.003296,59.1247586 C220.003296,63.8303968 216.055989,67.6424822 211.217697,67.6424822 C206.36407,67.6424822 202.432097,63.8303968 202.432097,59.1247586 C202.432097,54.4191203 206.36407,50.6070349 211.217697,50.6070349 Z M189.069682,69.1463499 L209.343718,81.0293825 L177.979947,119.268411 L146.616175,81.0293825 L166.874877,69.161217 C167.304956,0.707599294 123.068772,41.7915874 121.102786,80.7762601 C119.075382,121.02807 98.4939441,137.080762 98.4939441,165.297818 L98.4939441,202.89756 C98.4939441,291.498049 257.432135,291.498049 257.432135,202.89756 L257.432135,165.297818 C257.432135,137.079618 237.48052,120.997573 234.823293,80.7762601 C231.85894,35.6411688 191.048644,7.52703889 189.051202,69.161217 L189.069682,69.1463499 Z"/>
</svg>
