<svg xmlns="http://www.w3.org/2000/svg" width="493" height="493" viewBox="0 0 493 493">
  <g fill="none" fill-rule="evenodd" transform="translate(.66 .253)">
    <path fill="#6AC5FF" d="M245.833,0 C110.063,0 0,110.065 0,245.834 C0,381.604 110.063,491.669 245.833,491.669 C381.603,491.669 491.667,381.604 491.667,245.834 C491.667,110.065 381.603,0 245.833,0"/>
    <polyline fill="#E7EDEE" points="296.036 34.126 70.775 34.126 70.775 410.666 368.712 410.666 368.712 85.848 296.036 34.126"/>
    <polyline fill="#C3C8C7" points="368.713 85.848 296.036 85.848 296.036 34.127 368.713 85.848"/>
    <polyline fill="#D5DADA" points="322.125 60.216 96.864 60.216 96.864 436.755 394.802 436.755 394.802 111.937 322.125 60.216"/>
    <polyline fill="#B3B7B7" points="394.802 111.937 322.125 111.937 322.125 60.217 394.802 111.937"/>
    <polyline fill="#E7EDEE" points="348.215 86.305 122.954 86.305 122.954 462.846 420.892 462.846 420.892 138.027 348.215 86.305"/>
    <polyline fill="#C3C8C7" points="420.892 138.027 348.215 138.027 348.215 86.306 420.892 138.027"/>
    <polygon fill="#C3C8C7" points="180.628 148.906 290.541 148.906 290.541 134.049 180.628 134.049"/>
    <polygon fill="#C3C8C7" points="156.151 214.62 387.694 214.62 387.694 196.208 156.151 196.208"/>
    <polygon fill="#C3C8C7" points="156.151 254.791 387.694 254.791 387.694 236.38 156.151 236.38"/>
    <polygon fill="#C3C8C7" points="156.151 294.963 387.694 294.963 387.694 276.55 156.151 276.55"/>
    <polygon fill="#C3C8C7" points="156.151 335.135 387.694 335.135 387.694 316.722 156.151 316.722"/>
    <polygon fill="#C3C8C7" points="306.07 390.746 387.694 390.746 387.694 372.334 306.07 372.334"/>
    <polyline fill="#464948" points="209.446 353.513 183.341 383.029 196.202 394.403 222.307 364.887 209.446 353.513"/>
    <path fill="#5A5E5C" d="M298.72,352.947 C277.568,376.863 240.89,379.112 216.973,357.961 C193.056,336.809 190.806,300.13 211.959,276.213 C233.126,252.28 269.804,250.029 293.721,271.182 C317.638,292.334 319.887,329.012 298.72,352.947 Z M305.401,257.976 C274.147,230.335 226.391,233.247 198.735,264.519 C171.094,295.772 174.039,343.526 205.293,371.167 C236.547,398.808 284.302,395.894 311.944,364.641 C339.599,333.37 336.655,285.617 305.401,257.976 L305.401,257.976 Z"/>
    <path fill="#FA9194" d="M182.913,373.813 L139.215,423.222 C134.206,428.887 134.736,437.54 140.4,442.549 L142.377,444.298 C148.041,449.306 156.694,448.776 161.704,443.111 L205.402,393.703 L182.913,373.813"/>
    <polyline fill="#5A5E5C" points="182.913 373.813 176.48 381.087 198.969 400.975 205.402 393.703 182.913 373.813"/>
  </g>
</svg>
