<svg xmlns="http://www.w3.org/2000/svg" width="611" height="602" viewBox="0 0 611 602">
  <defs>
    <linearGradient id="report-a" x1="50%" x2="50%" y1="0%" y2="100%">
      <stop offset="0%" stop-color="#0052E2"/>
      <stop offset="100%" stop-color="#0089FF"/>
    </linearGradient>
  </defs>
  <g fill="none" fill-rule="evenodd">
    <path fill="url(#report-a)" d="M578.950138,404.263089 C601.833842,322.817301 631.639881,214.289492 590.574112,139.684344 C553.189617,71.7670519 449.720619,34.893282 372.066411,15.0500595 C209.111339,-26.5903593 55.5987515,15.8591009 11.8827152,171.449602 C-31.8333212,327.040104 47.461699,548.739673 210.416771,590.380092 C373.371842,632.020511 535.234102,559.85359 578.950138,404.263089 Z"/>
    <g fill="#0052E2" stroke="#FFF" stroke-width="13" transform="translate(133 164)">
      <path d="M3,79.7332823 L3,274 L3,274 L342,274 L342,79.7332823 C342,79.1809975 341.552285,78.7332823 341,78.7332823 C340.824255,78.7332823 340.651613,78.7795984 340.499467,78.8675647 L172.5,176 L172.5,176 L4.50053286,78.8675647 C4.02241026,78.5911281 3.41071912,78.7546268 3.13428246,79.2327494 C3.04631613,79.3848952 3,79.5575369 3,79.7332823 Z"/>
      <path d="M4.18096788,269.471553 L165.260581,133.531533 C169.730646,129.759108 176.269354,129.759108 180.739419,133.531533 L341.819032,269.471553 C342.66317,270.183947 342.76997,271.445765 342.057576,272.289903 C341.677565,272.74019 341.118337,273 340.529129,273 L5.47087103,273 C4.36630153,273 3.47087103,272.104569 3.47087103,271 C3.47087103,270.410792 3.73068137,269.851564 4.18096788,269.471553 Z"/>
      <polygon points="205.956 143.631 172.874 121.316 133.842 149 21 87.917 21 0 316 0 316 73.247 316 87.917 316 92.832"/>
    </g>
  </g>
</svg>
