<svg xmlns="http://www.w3.org/2000/svg" width="65" height="70" viewBox="0 0 65 70">
  <defs>
    <linearGradient id="select-a" x1="50%" x2="50%" y1="0%" y2="100%">
      <stop offset="0%" stop-color="#0052E2"/>
      <stop offset="100%" stop-color="#0089FF"/>
    </linearGradient>
  </defs>
  <path fill="url(#select-a)" fill-rule="evenodd" d="M445.264119,940.936 C449.914761,922.844081 466.245887,917.908098 483.581533,922.750007 C491.842619,925.057358 502.849959,929.345006 506.827033,937.242366 C511.195732,945.917383 508.024877,958.536895 505.59044,968.007336 C500.939798,986.099255 483.720409,994.490757 466.384763,989.648848 C449.049117,984.806939 440.613476,959.027919 445.264119,940.936 Z M472.437812,949.808746 C472.051613,949.759183 471.677059,949.868464 471.419334,950.137968 C471.127472,950.44116 470.983433,950.94519 471.080089,951.346785 L471.080089,951.346785 L476.659604,972.566608 L476.690668,972.700679 C476.829255,973.176499 477.232609,973.476495 477.677317,973.523038 C478.162492,973.574225 478.647667,973.32222 478.890255,972.867422 L478.890255,972.867422 L481.8506,966.97101 L490.341165,975.791183 L490.510582,975.957952 C491.257085,976.653727 492.161265,977 493.106275,977 C494.125919,977 495.09627,976.596399 495.871386,975.791183 C497.376205,974.227946 497.376205,971.658705 495.871386,970.046478 L495.871386,970.046478 L487.38082,961.174897 L493.106372,958.09963 L493.220388,958.024843 C493.58398,957.755987 493.780536,957.297796 493.737488,956.839606 C493.688214,956.335596 493.34897,955.882793 492.863785,955.731187 L492.863785,955.731187 L472.582978,949.834776 Z M473.989006,952.858573 L489.224971,957.343313 L484.761748,959.762964 L484.639251,959.843065 C484.364879,960.041148 484.173764,960.317425 484.130632,960.670584 C484.081338,961.074196 484.179906,961.477807 484.469876,961.779003 L484.469876,961.779003 L494.123891,971.807791 L494.226165,971.925098 C494.703441,972.530669 494.66935,973.408804 494.123891,973.975437 C493.542069,974.579845 492.619072,974.579845 492.03725,973.975437 L492.03725,973.975437 L482.432237,963.946649 L482.325259,963.847779 C482.105289,963.668005 481.849306,963.594235 481.558534,963.594235 L481.558534,963.594235 L481.365221,963.594235 L481.237737,963.618597 C480.903701,963.702663 480.621242,963.936585 480.491517,964.249851 L480.491517,964.249851 L478.162288,968.835181 L473.989006,952.858573 Z M467.674072,956.90591 C467.186933,956.395539 466.406732,956.395539 465.969086,956.90591 L465.969086,956.90591 L463.38686,959.611287 L463.295927,959.717258 C462.901886,960.229051 462.932197,960.969637 463.38686,961.397587 C463.630429,961.652772 463.923492,961.754448 464.264099,961.754448 C464.604707,961.754448 464.848277,961.652772 465.091846,961.397587 L465.091846,961.397587 L467.674072,958.69221 L467.765005,958.586239 C468.159046,958.074446 468.128735,957.33386 467.674072,956.90591 Z M466.248979,950.245552 L458.216971,950.245552 L458.091124,950.252012 C457.47131,950.316118 457,950.849784 457,951.516014 C457,952.228642 457.534348,952.786477 458.216971,952.786477 L458.216971,952.786477 L466.248979,952.786477 L466.374826,952.780016 C466.99464,952.715911 467.46595,952.182245 467.46595,951.516014 C467.46595,950.805368 466.929704,950.245552 466.248979,950.245552 L466.248979,950.245552 Z M464.990699,941.565089 C464.502203,941.152256 463.795329,941.184012 463.38686,941.660359 C462.899721,942.17073 462.899721,942.988141 463.38686,943.446658 L463.38686,943.446658 L465.919593,946.152035 L466.027004,946.252153 C466.247865,946.434196 466.504883,946.508897 466.796832,946.508897 C467.13744,946.508897 467.430503,946.407221 467.674072,946.152035 C468.161211,945.641664 468.161211,944.824253 467.674072,944.365735 L467.674072,944.365735 L465.091846,941.660359 Z M482.297728,941.660359 C481.810589,941.149987 481.030387,941.149987 480.592742,941.660359 L480.592742,941.660359 L478.010516,944.365735 L477.919583,944.471706 C477.525542,944.9835 477.555852,945.724085 478.010516,946.152035 C478.204611,946.355387 478.545248,946.508897 478.838262,946.508897 C479.131305,946.508897 479.471932,946.407221 479.715502,946.152035 L479.715502,946.152035 L482.297728,943.446658 L482.388661,943.340688 C482.782702,942.828894 482.752391,942.088308 482.297728,941.660359 Z M472.985663,935 C472.304006,935 471.767025,935.559051 471.767025,936.268725 L471.767025,936.268725 L471.767025,944.642307 L471.773201,944.773506 C471.83449,945.419679 472.344827,945.911032 472.985663,945.911032 C473.66732,945.911032 474.204301,945.351981 474.204301,944.642307 L474.204301,944.642307 L474.204301,936.268725 L474.198104,936.137526 C474.136613,935.491353 473.624717,935 472.985663,935 Z" transform="translate(-444 -921)"/>
</svg>
